<?xml version="1.0" encoding="UTF-8"?>
<svg xmlns="http://www.w3.org/2000/svg" xmlns:xlink="http://www.w3.org/1999/xlink" width="613pt" height="615pt" viewBox="0 0 613 615" version="1.1">
<g id="surface1">
<path style=" stroke:none;fill-rule:nonzero;fill:rgb(0%,0%,0%);fill-opacity:1;" d="M 82.824219 18.875 C 41.515625 18.878906 18.277344 40.25 18.324219 83.875 L 18.324219 534.074219 C 18.277344 574.878906 39.167969 596.265625 80.425781 596.273438 L 532.523438 596.273438 C 573.796875 596.265625 594.722656 575.945313 594.726563 534.074219 L 594.726563 83.875 C 594.722656 41.3125 573.796875 18.878906 531.226563 18.875 C 531.226563 18.875 82.707031 18.734375 82.824219 18.875 "/>
<path style="fill:none;stroke-width:34.08;stroke-linecap:butt;stroke-linejoin:miter;stroke:rgb(100%,100%,100%);stroke-opacity:1;stroke-miterlimit:10;" d="M 828.242188 5961.25 C 415.15625 5961.210938 182.773438 5747.5 183.242188 5311.25 L 183.242188 809.257813 C 182.773438 401.210938 391.679688 187.34375 804.257813 187.265625 L 5325.234375 187.265625 C 5737.96875 187.34375 5947.226563 390.546875 5947.265625 809.257813 L 5947.265625 5311.25 C 5947.226563 5736.875 5737.96875 5961.210938 5312.265625 5961.25 C 5312.265625 5961.25 827.070313 5962.65625 828.242188 5961.25 Z M 828.242188 5961.25 " transform="matrix(0.1,0,0,-0.1,0,615)"/>
<path style=" stroke:none;fill-rule:nonzero;fill:rgb(100%,100%,100%);fill-opacity:1;" d="M 129.523438 259.476563 L 309.726563 79.273438 L 489.925781 259.476563 L 489.925781 378.375 L 352.925781 241.273438 L 352.925781 510.574219 L 265.726563 510.574219 L 265.726563 242.273438 L 129.324219 378.574219 L 129.523438 259.476563 "/>
</g>
</svg>
